<svg width="285" height="257" viewBox="0 0 285 257" fill="none" xmlns="http://www.w3.org/2000/svg">
<path d="M215.133 18.1322C195.103 11.3472 177.142 17.2335 169.717 20.3818L167 21.4832L179.279 39.1229L196.543 44.846C199.486 44.4938 209.044 43.3513 212.439 42.9497C226.706 41.2524 229.325 22.7976 215.133 18.1322Z" fill="#708238"/>
<path d="M265.581 95.4911C250.997 81.3328 256.624 72.6779 241.844 58.8901C222.785 41.1112 195.955 45.4737 196.011 45.4706H196L240.353 152.151C239.413 155.567 238.015 159.637 236.359 163.622C232.537 172.81 238.644 183.293 249.421 184.627C260.294 186.097 267.685 179.167 268.377 178.502C289.818 155.307 290.727 119.855 265.581 95.4911Z" fill="#708238"/>
<path d="M20.3978 240.711C23.5478 240.711 26.1015 238.352 26.1015 235.443C26.1015 232.533 23.5478 230.175 20.3978 230.175C17.2477 230.175 14.694 232.533 14.694 235.443C14.694 238.352 17.2477 240.711 20.3978 240.711Z" fill="#FFFFF0"/>
<path d="M66.8265 218.641L55.5371 229.068L36.5977 220.6L27.2996 202.988L38.589 192.561L55.5371 200.857L66.8265 218.641Z" fill="#FFFFF0"/>
<path d="M57.4271 82.0095C60.369 79.2924 65.1446 79.2924 68.0865 82.0095L70.8259 84.5397L142.873 128.227L183.781 188.867L186.521 191.397C189.463 194.114 189.463 198.525 186.521 201.242L160.871 224.933C157.929 227.65 153.153 227.65 150.211 224.933C66.8647 168.335 79.0046 176.579 77.7727 175.742L32.4971 116.21L31.7771 115.545C28.8352 112.828 28.8352 108.417 31.7771 105.7C37.8746 100.068 51.3589 87.6137 57.4271 82.0095Z" fill="#4B3832"/>
<path d="M55.5371 229.068L34.5165 248.483C26.714 255.689 14.0758 255.684 6.27899 248.483C-1.52289 241.282 -1.52289 229.603 6.27899 222.402L27.2996 202.988L55.5371 229.068ZM24.4309 239.168C26.6584 237.11 26.6584 233.775 24.4309 231.718C22.2034 229.66 18.5921 229.66 16.3646 231.718C14.1371 233.775 14.1371 237.11 16.3646 239.168C18.5921 241.225 22.2034 241.225 24.4309 239.168ZM149.491 224.268L143.203 230.076C136.402 236.352 125.63 237.027 117.98 231.655L94.9065 215.462C86.8909 209.83 75.6015 210.542 68.4746 217.119L66.8265 218.641L38.589 192.561L40.2371 191.038C47.3584 184.456 48.129 174.029 42.0315 166.626L24.4984 145.314C18.6821 138.249 19.4134 128.3 26.2084 122.019L32.4971 116.21L149.491 224.268ZM70.8259 84.5396L135.373 2.56799C155.692 15.6742 174.861 29.8855 193.136 45.3878H193.125C212.311 66.3924 235.588 79.8067 240.234 118.029C241.768 130.669 240.129 143.943 237.213 152.972C219.405 164.942 201.59 176.902 183.781 188.867C180.134 185.498 77.6743 90.8654 70.8259 84.5396Z" fill="#FFFFF0"/>
<path d="M148.224 226.768L29.7893 117.381C25.7443 113.646 25.7438 107.599 29.7893 103.862L55.4376 80.173C59.4718 76.4459 66.039 76.4464 70.0744 80.1725L188.509 189.56C192.554 193.295 192.554 199.343 188.509 203.079L162.86 226.768C158.817 230.504 152.269 230.505 148.224 226.768ZM59.4144 83.8466C33.4202 108.473 32.3824 107.419 32.3824 110.622C32.3824 114.057 27.7536 107.487 152.2 223.094C154.047 224.799 157.036 224.801 158.882 223.094C184.986 198.366 185.915 199.514 185.915 196.32C185.915 192.884 190.544 199.454 66.0969 83.8466C64.2536 82.1452 61.2572 82.1462 59.4144 83.8466Z" fill="#FFFFF0"/>
<path d="M6.67744 250.16C-2.22525 241.938 -2.22638 228.627 6.67744 220.404L40.6378 189.038C46.7359 183.406 47.3996 174.376 42.1807 168.034L24.6465 146.725C18.0124 138.662 18.8556 127.183 26.6085 120.023L32.8995 114.212C33.9969 113.198 35.7789 113.198 36.8764 114.212C160.912 229.18 154.692 222.053 154.692 224.104C154.692 225.937 153.254 226.199 147.577 231.751C139.826 238.911 127.396 239.691 118.667 233.563L95.5952 217.368C88.7293 212.549 78.9531 213.161 72.8533 218.793L38.8929 250.159C29.9914 258.382 15.5801 258.383 6.67744 250.16ZM34.8879 119.723L30.5859 123.696C24.8124 129.028 24.1847 137.577 29.1246 143.58L46.6588 164.89C53.5714 173.29 52.6928 185.25 44.6147 192.711L10.6543 224.077C3.96506 230.255 3.96506 240.308 10.6543 246.486C17.3441 252.664 28.2268 252.664 34.9166 246.486L68.877 215.12C76.9534 207.659 89.9049 206.847 98.9994 213.232L122.071 229.427C128.571 233.988 137.827 233.41 143.6 228.077L147.902 224.104L34.8879 119.723Z" fill="#4B3832"/>
<path d="M14.4907 241.036C11.1698 237.969 11.1698 232.977 14.4907 229.911C17.8117 226.843 23.2151 226.843 26.5361 229.911C29.8571 232.977 29.8571 237.969 26.5361 241.036C23.2146 244.104 17.8123 244.104 14.4907 241.036ZM18.4682 233.584C17.3426 234.624 17.3336 236.314 18.4682 237.362C19.5949 238.402 21.4241 238.41 22.5592 237.362C23.6848 236.322 23.6938 234.632 22.5592 233.584C21.4326 232.544 19.6033 232.536 18.4682 233.584ZM183.899 191.494C181.667 191.494 189.164 197.006 68.9537 86.4067C67.9749 85.5033 67.8534 84.0761 68.6674 83.0422L133.214 1.0706C134.115 -0.0744438 135.842 -0.342522 137.099 0.468467C157.393 13.5565 176.909 28.0208 195.106 43.4623C197.047 45.0302 195.858 48.0154 193.258 48.0154C193.202 48.0056 192.217 48.0669 191.35 47.3307C173.998 32.603 155.434 18.7721 136.137 6.19214L74.6304 84.3026L184.187 185.49C215.61 164.384 224.295 158.55 235.675 150.902C236.931 150.058 238.69 150.314 239.604 151.474C240.518 152.634 240.241 154.259 238.984 155.103C227.83 162.6 216.674 170.093 205.519 177.585C184.585 191.422 185.568 191.494 183.899 191.494ZM135.515 192.599L119.776 178.062C118.678 177.048 118.678 175.403 119.776 174.389C120.874 173.375 122.656 173.375 123.753 174.389L139.492 188.926C140.59 189.94 140.59 191.585 139.492 192.599C138.394 193.614 136.612 193.614 135.515 192.599ZM107.89 167.084L36.6774 101.311C35.5789 100.297 35.5789 98.6521 36.6774 97.638C37.7749 96.6233 39.5569 96.6233 40.6543 97.638L111.867 163.411C112.965 164.425 112.965 166.07 111.867 167.084C110.769 168.099 108.987 168.099 107.89 167.084Z" fill="#4B3832"/>
<path d="M171.707 181.39C170.609 180.376 170.609 178.731 171.707 177.717L220.592 132.566C221.689 131.552 223.471 131.552 224.568 132.566C225.667 133.58 225.667 135.225 224.568 136.239L175.684 181.39C174.587 182.404 172.805 182.404 171.707 181.39ZM160.441 169.908C157.962 169.908 156.671 167.118 158.452 165.474L189.839 136.486C190.936 135.471 192.718 135.471 193.815 136.486C194.914 137.5 194.914 139.144 193.815 140.159L162.429 169.147C161.881 169.654 161.16 169.908 160.441 169.908ZM145.197 156.904C144.098 155.89 144.098 154.245 145.197 153.231L201.675 101.067C202.773 100.052 204.555 100.052 205.652 101.067C206.751 102.081 206.751 103.726 205.652 104.74L149.174 156.904C148.077 157.919 146.295 157.919 145.197 156.904ZM131.942 144.662C130.844 143.648 130.844 142.003 131.942 140.989L168.396 107.32C169.493 106.305 171.275 106.305 172.373 107.32C173.471 108.334 173.471 109.979 172.373 110.993L135.919 144.662C134.822 145.677 133.04 145.677 131.942 144.662ZM120.675 133.18C118.196 133.18 116.906 130.39 118.687 128.746L166.163 84.8961C167.261 83.8814 169.043 83.8814 170.14 84.8961C171.239 85.9102 171.239 87.555 170.14 88.5692L122.664 132.419C122.115 132.927 121.395 133.18 120.675 133.18ZM105.431 120.176C104.333 119.162 104.333 117.517 105.431 116.503L161.91 64.3393C163.007 63.3246 164.789 63.3246 165.887 64.3393C166.985 65.3534 166.985 66.9982 165.887 68.0123L109.408 120.176C108.311 121.191 106.529 121.191 105.431 120.176ZM92.1767 107.934C91.0781 106.92 91.0781 105.275 92.1767 104.261L118.687 79.7751C119.784 78.7604 121.566 78.7604 122.664 79.7751C123.762 80.7892 123.762 82.434 122.664 83.4481L96.1536 107.934C95.0561 108.948 93.2741 108.949 92.1767 107.934ZM78.9208 95.6914C77.8223 94.6773 77.8223 93.0325 78.9208 92.0183L135.4 39.8538C136.497 38.8391 138.279 38.8391 139.377 39.8538C140.475 40.8679 140.475 42.5127 139.377 43.5268L82.8983 95.6914C81.8008 96.7061 80.0183 96.7061 78.9208 95.6914Z" fill="#4B3832"/>
<path d="M231.993 178.102C229.158 173.336 228.744 167.689 230.858 162.609C237.168 147.409 239.162 132.507 237.439 118.316C232.913 81.062 210.278 68.1952 190.976 47.0628C189.671 45.6341 190.235 43.0993 193.138 42.7642C194.321 42.5948 208.601 40.9245 208.675 40.9157C220.178 39.5462 221.945 24.7245 210.99 21.1896C210.523 21.1709 191.605 13.061 167.482 23.2844L164.726 24.4045C163.305 24.9822 161.645 24.3853 161.019 23.0724C160.394 21.7595 161.04 20.2264 162.462 19.6487L165.177 18.5457C191.394 7.43451 212.462 16.2733 212.858 16.2889C226.731 20.8244 227.411 37.7138 215.881 44.0251C224.045 45.8907 233.115 49.6563 240.963 56.9786C256.256 71.2413 250.604 79.9039 264.743 93.6164C290.64 118.726 290.236 155.678 267.637 180.107C258.786 189.601 239.441 190.627 231.993 178.102ZM198.895 47.546C217.003 66.1727 238.571 81.0464 243.029 117.737C244.975 133.763 242.321 149.511 236.109 164.47C234.59 168.121 234.887 172.178 236.923 175.601C242.244 184.55 255.935 183.77 263.415 176.673C283.953 154.388 284.725 120.522 260.671 97.1981C245.785 82.7634 250.969 73.6919 236.966 60.6329C224.122 48.6505 207.506 47.3137 198.895 47.546ZM64.8375 220.478L36.6006 194.397C35.502 193.383 35.502 191.738 36.6006 190.724C37.698 189.709 39.48 189.709 40.5774 190.724L68.8144 216.805C69.9129 217.819 69.9129 219.464 68.8144 220.478C67.7169 221.492 65.9349 221.493 64.8375 220.478ZM53.5487 230.905L25.3112 204.825C24.2126 203.811 24.2126 202.166 25.3112 201.152C26.4086 200.137 28.1906 200.137 29.2881 201.152L57.5256 227.232C58.6241 228.246 58.6241 229.891 57.5256 230.905C56.4281 231.919 54.6461 231.919 53.5487 230.905Z" fill="#4B3832"/>
</svg>
